<svg enable-background="new 0 0 70.029 34.234" height="220.389266" viewBox="0 0 70.029 34.234" width="453.742606" xmlns="http://www.w3.org/2000/svg" xmlns:xlink="http://www.w3.org/1999/xlink"><clipPath id="a"><path d="m0 0h70.029v34.234h-70.029z"/></clipPath><path d="m50.118 14.16c-.001-.367.265-.606.517-.073.243.527.524 1.363.913 1.47.329.091.539-.023.817-.371.306-.386.597-.83.853-.737.243.088.149.646.074 1.203-.064.499-.087.96.163 1.26.304.366 1.199.306 2.014.284 1.179-.035 2.334-.09 2.432.293.1.397-.883.814-1.825 1.298-.647.329-1.141.666-1.357 1.074-.333.628.206 1.477.62 2.255.413.771.055 1.037-.422.738-3.064-1.919-4.829-5.043-4.799-8.694" fill="#f47920"/><path d="m65.063 9.73c-2.902 0-4.824 2.361-4.952 4.304s.325-.003.646-.566c.822-1.449 2.5-2.127 4.141-1.853 1.9.324 2.765 1.959 2.751 3.405-.019 1.546-.593 2.726-1.849 2.726-.672 0-1.214-.541-1.214-1.204 0-.665.542-1.206 1.214-1.206.396 0 .71.188.932.479.039.046.107.031.107-.028-.065-1.335-.96-2.439-2.732-2.439-1.927 0-3.39 1.683-3.396 3.594 0 .72.175 1.397.486 1.997.877 1.743 2.151 3.059 3.848 4.028 3.537-2.049 4.985-5.741 4.985-8.313-.001-2.653-2.162-4.924-4.967-4.924" fill="#25a4c4"/><path d="m69.086 10.098c-1.626-3.423-5.081-5.716-9.01-5.716-4.017 0-7.47 2.375-9.048 5.797 0 0-.223.476-.404 1.08-.618 2.052 1.404 2.555 1.684.731.118-.755-.021-1.195.41-1.812.679-.814 1.696-1.331 2.839-1.331 2.028 0 3.463 1.513 3.698 3.09-.24.053-.427-.166-.597-.322-.202-.183-.891-.861-2.143-.861-1.397 0-2.428.885-2.852 1.956-.031.055-.011.118.073.085v.001c.358-.146.759-.253 1.196-.279.764-.049 1.991.094 3.022 1.21.611.658 1.092.517 1.092.517.054-.881.408-1.787.476-1.949 1.106-2.644-.076-4.257-2.634-4.378-1.007-.048-1.799.246-2.264.398 0 0-.233.099-.291-.031-.06-.132.184-.265.184-.265.796-.438 1.659-.646 2.569-.646 2.403 0 3.088 1.186 3.451 1.713 1.006 1.464 3.08.216 1.475-1.344-.833-.672-1.881-1.331-4.275-1.334-1.326-.005-2.686.531-3.698 1.212 0 0-.228.16-.318.039-.093-.12.125-.288.127-.288 1.199-.935 2.841-1.586 4.481-1.586 1.863 0 3.477.605 4.796 1.685.938.77 1.789 1.155 2.749 1.29 1.281.181 2.181.619 3.122 1.402.049.032.108.004.09-.064" fill="#69a242"/><path clip-path="url(#a)" d="m65.421 5.278c.005.006.008.009.01.015.026.052.086.052.101-.017.404-1.537-.262-3.064-1.582-3.465l-2.505-.767c-.711-.214-1.08-.544-1.305-.987 0-.004 0-.004 0-.004-.003-.005-.003-.006-.008-.008-.025-.057-.087-.064-.102.006-.396 1.532.27 3.05 1.585 3.45l2.226.672c.833.266 1.276.577 1.578 1.101 0-.001.002.001.002.004" fill="#69a242"/><g fill="#697a83"><path d="m54.949 24.577c-.891 0-1.686.354-2.238.995l-.05.058-.049-.06c-.527-.642-1.322-.993-2.238-.993-1.868 0-3.172 1.292-3.172 3.142v4.093h1.71c0-.127 0-4.136 0-4.136 0-.842.602-1.431 1.462-1.431 1.266 0 1.403 1.001 1.403 1.431v4.136h1.711c0-.127 0-4.136 0-4.136 0-.828.613-1.431 1.461-1.431 1.315 0 1.418 1.096 1.418 1.431v4.136h1.712c0-.127 0-4.093 0-4.093 0-1.908-1.228-3.142-3.13-3.142m-18.175 7.229h1.645v-7.049h-1.645zm-33.184-7.228c-1.982 0-3.59 1.654-3.59 3.694s1.607 3.692 3.59 3.692c1.014 0 1.565-.408 1.977-.851v.697h1.611v-3.519c0-.007.001-.014.001-.021 0-2.038-1.607-3.692-3.589-3.692zm0 5.797c-1.075 0-1.946-.941-1.946-2.103 0-1.163.871-2.104 1.946-2.104 1.074 0 1.946.941 1.946 2.104 0 1.162-.872 2.103-1.946 2.103zm17.66-2.103c0 1.161-.591 2.103-1.771 2.103-1.169 0-1.769-.941-1.769-2.103v-3.517h-1.645v3.517c0 2.245 1.432 3.692 3.413 3.692 1.982 0 3.415-1.447 3.415-3.692v-3.516h-1.643zm10.77.017v3.517h1.646v-3.517c0-1.539.854-1.98 2.015-1.998v-1.537c-2.281 0-3.661 1.117-3.661 3.535zm12.685-.017c0 1.161-.592 2.103-1.771 2.103-1.169 0-1.769-.941-1.769-2.103v-3.517h-1.646v3.517c0 2.245 1.433 3.692 3.415 3.692s3.415-1.447 3.415-3.692v-3.516h-1.644zm-17.361-3.694c-1.981 0-3.589 1.654-3.589 3.694s1.607 3.692 3.589 3.692c1.015 0 1.566-.408 1.977-.851v.697h1.612v-3.519c0-.007 0-.014 0-.021 0-2.038-1.607-3.692-3.589-3.692zm0 5.797c-1.075 0-1.945-.941-1.945-2.103 0-1.163.87-2.104 1.945-2.104s1.946.941 1.946 2.104c0 1.162-.871 2.103-1.946 2.103z"/><path d="m15.211 34.234v-5.941c0-.007 0-.014 0-.021 0-2.04-1.605-3.694-3.588-3.694s-3.589 1.654-3.589 3.694 1.606 3.692 3.589 3.692c1.012 0 1.562-.406 1.972-.848v3.117h1.616m-3.588-3.858c-1.075 0-1.946-.941-1.946-2.103 0-1.163.871-2.104 1.946-2.104s1.946.941 1.946 2.104c0 1.162-.871 2.103-1.946 2.103z"/><path d="m4.1 18.89h-.808s-.948 2.683-1.021 2.893c-.074-.21-1.022-2.893-1.022-2.893h-.868l1.484 4.086h.812l1.483-4.086z"/><path d="m4.525 20.936c0 1.198.896 2.138 2.04 2.138.477 0 .932-.204 1.266-.56v.461h.796v-2.039c0-1.203-.9-2.146-2.047-2.146-1.152 0-2.055.942-2.055 2.146m.819 0c0-.762.555-1.38 1.236-1.38s1.235.618 1.235 1.38c0 .752-.555 1.364-1.235 1.364-.693 0-1.236-.6-1.236-1.364z"/><path d="m9.563 20.51v2.466h.811v-2.488c0-.527.429-.924.998-.924.563 0 .99.396.99.924v2.488h.811v-2.466c0-.979-.773-1.72-1.801-1.72-1.032 0-1.809.74-1.809 1.72"/><path d="m18.495 20.943c0 1.193.902 2.13 2.055 2.13 1.151 0 2.054-.937 2.054-2.13 0-1.208-.902-2.153-2.054-2.153-1.153 0-2.055.945-2.055 2.153m.826 0c0-.753.551-1.365 1.229-1.365.682 0 1.235.612 1.235 1.365 0 .735-.554 1.335-1.235 1.335-.678 0-1.229-.599-1.229-1.335z"/><path d="m26.97 18.89h-.775v2.457c0 .526-.427.925-.991.925-.568 0-.997-.398-.997-.925v-2.457h-.812v2.457c0 .98.777 1.72 1.809 1.72s1.809-.739 1.809-1.72v-2.457z"/><path d="m31.458 18.89h-.808s-.948 2.684-1.022 2.893c-.074-.209-1.021-2.893-1.021-2.893h-.868l1.482 4.086h.813l1.482-4.086z"/><path d="m37.325 19.205c-.357.317-.546.787-.546 1.358v2.411h.811v-2.427c0-.325.093-.574.275-.741.193-.179.493-.255.861-.221l.095.008v-.771l-.077-.009c-.556-.066-1.061.073-1.419.392"/><path d="m17.005 21.715c-.213.358-.576.563-1.01.563-.678 0-1.229-.603-1.229-1.342 0-.748.552-1.357 1.229-1.357.435 0 .803.211 1.021.583h.887l-.003-.007c-.283-.842-1.015-1.365-1.905-1.365-1.129 0-2.047.962-2.047 2.146 0 1.175.918 2.131 2.047 2.131.894 0 1.62-.518 1.898-1.352z"/><path d="m34.965 21.715c-.211.389-.571.594-1.044.594-.535 0-1.125-.387-1.246-1.119h3.27l.001-.104c0-.674-.232-1.277-.653-1.702-.382-.383-.882-.594-1.409-.594-1.133 0-2.054.962-2.054 2.146 0 1.194.919 2.131 2.092 2.131.936 0 1.635-.492 1.923-1.352zm-1.082-2.168c.511 0 .962.357 1.141.892h-2.295c.198-.584.722-.892 1.154-.892z"/><path d="m60 30.544h-.452v-.289h1.236v.289h-.453v1.274h-.331z"/><path d="m61.055 30.255h.466l.354 1.074h.004l.334-1.074h.466v1.562h-.31v-1.107h-.004l-.37 1.107h-.255l-.37-1.095h-.005v1.095h-.31z"/></g></svg>